<svg id="Слой_1" data-name="Слой 1" xmlns="http://www.w3.org/2000/svg" viewBox="0 0 54.61 41.97"><title>transit</title><path d="M12.69,42V36l3.05-3V27.11L0,32.24v-6.7l15.74-9.47V4.24a3.67,3.67,0,1,1,7.34,0V16l15.73,9.5v6.74L23.08,27.08v6l3.34,3.27v5.59l-7-2.38ZM19.4,36.7l4.32,1.47v-.69l-3.34-3.27V23.36l15.73,5.15V27L20.38,17.53V4.24a1,1,0,1,0-1.94,0V17.59L2.7,27.07v1.45l15.74-5.13V34.13l-3.05,3v1Z"/><path d="M38.76,33.51a11.74,11.74,0,0,1-2.58-.22v4.44a1,1,0,1,1-1.94,0V32.61a1.43,1.43,0,0,1-.23,0,6.59,6.59,0,0,1-2.47-.7v5.79a3.67,3.67,0,0,0,7.34,0V33.49Z"/><path d="M38.88,14.89v-6l3.34-3.27V0l-7,2.38L28.49,0V6l3.05,3v5.89l-6.39-2.08.09,2.87,9,2.93V7.85l-3.05-3v-1l4,1.44L39.52,3.8v.69L36.18,7.76V18.61l15.73-5.15V15L38.79,22.87a1,1,0,0,1,.08.14,11.52,11.52,0,0,0,1.35,2,.25.25,0,0,1,0,.07l14.35-8.66V9.73Z"/></svg>