<?xml version="1.0" encoding="utf-8"?>
<svg id="Слой_1" data-name="Слой 1" xmlns="http://www.w3.org/2000/svg" viewBox="0 0 44.68 38.26"><defs><style>.cls-1{fill:none;stroke:#fffdfd;stroke-linecap:round;stroke-miterlimit:10;stroke-width:2px;}</style></defs><title>5</title><path class="cls-1" d="M40.08,2.92c-5.14-5.66-11.67-1.64-13.62,0C25.19,4,21.34,7.35,21.34,7.35S17.49,4,16.22,2.94c-1.95-1.66-8.48-5.68-13.62,0A9.63,9.63,0,0,0,2.19,15.6c1,1.12,19.15,20.21,19.15,20.21S39.5,16.72,40.49,15.6A9.63,9.63,0,0,0,40.08,2.92Z" transform="translate(1 1)"/><path class="cls-1" d="M21.34,7.35s-1.24,1.7-2.3,3A3.62,3.62,0,0,0,19.2,15c1.34,1.34,3.78.58,4.75-.39.77-.77,3.62-3.8,3.62-3.8l8.75,8.75" transform="translate(1 1)"/><line class="cls-1" x1="29.51" y1="18.61" x2="34.65" y2="23.22"/><line class="cls-1" x1="26.81" y1="21.53" x2="31.95" y2="26.13"/><path class="cls-1" d="M10,23.24s5-4.93,5.43-5.33a2.51,2.51,0,0,1,3,0A3,3,0,0,1,19,20.37" transform="translate(1 1)"/><path class="cls-1" d="M13,26.61s5-4.93,5.43-5.33a2.52,2.52,0,0,1,3,0A3,3,0,0,1,22,23.74" transform="translate(1 1)"/><path class="cls-1" d="M15.92,29.57s5-4.93,5.43-5.33a2.52,2.52,0,0,1,3,0A3,3,0,0,1,25,26.7" transform="translate(1 1)"/><path class="cls-1" d="M18.52,32.69s5-4.93,5.43-5.33a2.57,2.57,0,0,1,3,0,1.85,1.85,0,0,1,.21,2.42" transform="translate(1 1)"/></svg>