<?xml version="1.0" encoding="utf-8"?>
<svg id="Layer_1" data-name="Layer 1" xmlns="http://www.w3.org/2000/svg" viewBox="0 0 41.28 39.51"><defs><style>.cls-1{fill:#fff;}</style></defs><title>3</title><path class="cls-1" d="M37.07,39.51a5.85,5.85,0,0,1-2.83-.73l-.76-.41a3.81,3.81,0,0,0-3.73,0l-.75.41a5.84,5.84,0,0,1-5.67,0l-.75-.41a3.81,3.81,0,0,0-3.73,0l-.76.41a5.82,5.82,0,0,1-5.66,0l-.76-.41a3.81,3.81,0,0,0-3.73,0l-.76.41a5.82,5.82,0,0,1-5.66,0l-1-.55a1,1,0,1,1,1-1.75l1,.55a3.86,3.86,0,0,0,3.73,0L7,36.61a5.89,5.89,0,0,1,5.67,0l.75.42a3.88,3.88,0,0,0,3.74,0l.75-.42a5.87,5.87,0,0,1,5.66,0l.76.42A3.86,3.86,0,0,0,28,37l.76-.42a5.87,5.87,0,0,1,5.66,0l.76.42a3.86,3.86,0,0,0,3.73,0l.85-.47a1,1,0,1,1,1,1.75l-.86.47A5.82,5.82,0,0,1,37.07,39.51Z"/><path class="cls-1" d="M37.07,34.83a6,6,0,0,1-2.83-.73l-.75-.42a3.88,3.88,0,0,0-3.74,0L29,34.1a5.89,5.89,0,0,1-5.67,0l-.75-.42a3.86,3.86,0,0,0-3.73,0l-.76.42a5.87,5.87,0,0,1-5.66,0l-.76-.42a3.86,3.86,0,0,0-3.73,0l-.76.42a5.87,5.87,0,0,1-5.66,0l-1-.56a1,1,0,0,1-.4-1.35,1,1,0,0,1,1.36-.4l1,.55a3.81,3.81,0,0,0,3.73,0L7,31.93a5.84,5.84,0,0,1,5.67,0l.75.41a3.83,3.83,0,0,0,3.74,0l.75-.41a5.82,5.82,0,0,1,5.66,0l.76.41a3.81,3.81,0,0,0,3.73,0l.76-.41a5.82,5.82,0,0,1,5.66,0l.75.41a3.83,3.83,0,0,0,3.74,0l.85-.47a1,1,0,0,1,1,1.76l-.86.47A5.93,5.93,0,0,1,37.07,34.83Z"/><path class="cls-1" d="M37.07,30a5.86,5.86,0,0,1-2.83-.74l-.76-.41a3.86,3.86,0,0,0-3.73,0l-.75.41a5.83,5.83,0,0,1-5.67,0l-.75-.41a3.86,3.86,0,0,0-3.73,0l-.76.41a5.82,5.82,0,0,1-5.66,0l-.76-.41a3.86,3.86,0,0,0-3.73,0l-.76.41a5.82,5.82,0,0,1-5.66,0l-1-.55a1,1,0,1,1,1-1.75l1,.55a3.86,3.86,0,0,0,3.73,0L7,27.08a5.83,5.83,0,0,1,5.67,0l.75.41a3.88,3.88,0,0,0,3.74,0l.75-.41a5.82,5.82,0,0,1,5.66,0l.76.41a3.86,3.86,0,0,0,3.73,0l.76-.41a5.82,5.82,0,0,1,5.66,0l.76.41a3.86,3.86,0,0,0,3.73,0l.85-.47a1,1,0,1,1,1,1.75l-.86.47A5.83,5.83,0,0,1,37.07,30Z"/><path class="cls-1" d="M22.65,14.93a1.1,1.1,0,0,1-.79-.36A4.52,4.52,0,0,0,16,13.69,1,1,0,0,1,14.87,12a6.47,6.47,0,0,1,6.45-.33c-.07-3.2,2.09-4.64,4.11-5.3A1,1,0,0,1,26,8.32c-3.06,1-3,3.06-2.47,4.95a1.23,1.23,0,0,1-.4,1.53A1.21,1.21,0,0,1,22.65,14.93Z"/><path class="cls-1" d="M20.65,5.28A1.15,1.15,0,0,1,19.87,5a1.79,1.79,0,0,0-2.3-.39,1,1,0,1,1-1.13-1.64,3.75,3.75,0,0,1,3.08-.47A3.19,3.19,0,0,1,21.86.05,1,1,0,1,1,22.48,2c-1.09.35-1.16.94-.91,1.89a1,1,0,0,1-.44,1.32A.9.9,0,0,1,20.65,5.28Z"/></svg>