<?xml version="1.0" encoding="utf-8"?>
<svg id="Layer_1" data-name="Layer 1" xmlns="http://www.w3.org/2000/svg" viewBox="0 0 42.25 22.18"><defs><style>.cls-1{fill:#fff;}</style></defs><title>2</title><path class="cls-1" d="M3.14,2c3.3,0,9.14,4.38,12.5,7.47v5a30.42,30.42,0,0,1-11,5.63,1.24,1.24,0,0,1-.33,0,1.89,1.89,0,0,1-1.67-1.83C1.23,6.41,2.49,2.55,3.14,2M3.09,0C-1,0-.13,12,.65,18.58a3.84,3.84,0,0,0,3.65,3.6,3.13,3.13,0,0,0,.8-.1,32.38,32.38,0,0,0,12.54-6.64V8.6S8.72,0,3.09,0Z"/><path class="cls-1" d="M39.11,2c.65.55,1.91,4.41.51,16.35A1.9,1.9,0,0,1,38,20.18a1.24,1.24,0,0,1-.33,0,30.55,30.55,0,0,1-11-5.63v-5C30,6.38,35.81,2,39.11,2m0-2C33.53,0,24.6,8.6,24.6,8.6v6.84a32.5,32.5,0,0,0,12.55,6.64,3.08,3.08,0,0,0,.8.1,3.85,3.85,0,0,0,3.65-3.6C42.38,12,43.22,0,39.16,0Z"/><line class="cls-1" x1="32.86" y1="9.2" x2="26.06" y2="11.09"/><path class="cls-1" d="M26.05,12.09a1,1,0,0,1-.26-2l6.8-1.89a1,1,0,0,1,1.23.69,1,1,0,0,1-.7,1.23l-6.8,1.89A.84.84,0,0,1,26.05,12.09Z"/><line class="cls-1" x1="32.74" y1="14.11" x2="25.94" y2="12.2"/><path class="cls-1" d="M32.74,15.11l-.27,0-6.8-1.91a1,1,0,0,1,.54-1.93L33,13.15a1,1,0,0,1-.27,2Z"/><line class="cls-1" x1="8.9" y1="9.2" x2="15.7" y2="11.09"/><path class="cls-1" d="M15.7,12.09a.84.84,0,0,1-.27,0l-6.8-1.89a1,1,0,0,1,.54-1.92L16,10.13a1,1,0,0,1-.27,2Z"/><line class="cls-1" x1="8.9" y1="14.2" x2="15.7" y2="12.29"/><path class="cls-1" d="M8.9,15.2a1,1,0,0,1-.27-2l6.8-1.91A1,1,0,0,1,16,13.25l-6.8,1.91A.84.84,0,0,1,8.9,15.2Z"/><path class="cls-1" d="M24.93,9a.12.12,0,0,1,.11.11v5.9a.12.12,0,0,1-.11.11H17.49a.13.13,0,0,1-.11-.11V9.15A.13.13,0,0,1,17.49,9h7.44m0-2H17.49a2.12,2.12,0,0,0-2.11,2.11v5.9a2.12,2.12,0,0,0,2.11,2.11h7.44A2.12,2.12,0,0,0,27,15.05V9.15A2.12,2.12,0,0,0,24.93,7Z"/></svg>