<?xml version="1.0" encoding="utf-8"?>
<svg id="Layer_1" data-name="Layer 1" xmlns="http://www.w3.org/2000/svg" viewBox="0 0 40 40"><defs><style>.cls-1{fill:#fff;}</style></defs><title>1</title><path class="cls-1" d="M25,5A20,20,0,1,0,45,25,20,20,0,0,0,25,5Zm0,38A18,18,0,1,1,43,25,18,18,0,0,1,25,43Z" transform="translate(-5 -5)"/><path class="cls-1" d="M27.61,26.62A3,3,0,0,0,28.08,25,3.07,3.07,0,0,0,26,22.1V9a1,1,0,0,0-2,0V22.1a3.07,3.07,0,0,0,1,6,3.11,3.11,0,0,0,1-.18l7.42,5.84a1,1,0,0,0,.62.21,1,1,0,0,0,.62-1.78ZM23.92,25a1.07,1.07,0,0,1,.87-1A1.55,1.55,0,0,0,25,24a1.55,1.55,0,0,0,.21,0,1.07,1.07,0,1,1-1.29,1Z" transform="translate(-5 -5)"/><path class="cls-1" d="M25,5A20,20,0,1,0,45,25,20,20,0,0,0,25,5Zm0,38A18,18,0,1,1,43,25,18,18,0,0,1,25,43Z" transform="translate(-5 -5)"/><path class="cls-1" d="M27.61,26.62A3,3,0,0,0,28.08,25,3.07,3.07,0,0,0,26,22.1V9a1,1,0,0,0-2,0V22.1a3.07,3.07,0,0,0,1,6,3.11,3.11,0,0,0,1-.18l7.42,5.84a1,1,0,0,0,.62.21,1,1,0,0,0,.62-1.78ZM23.92,25a1.07,1.07,0,0,1,.87-1A1.55,1.55,0,0,0,25,24a1.55,1.55,0,0,0,.21,0,1.07,1.07,0,1,1-1.29,1Z" transform="translate(-5 -5)"/></svg>