<?xml version="1.0" encoding="utf-8"?>
<svg id="Layer_1" data-name="Layer 1" xmlns="http://www.w3.org/2000/svg" viewBox="0 0 20.97 31.45"><defs><style>.cls-1{fill:#fff;}</style></defs><title>7</title><path class="cls-1" d="M19.39,14.52V12.1a8.84,8.84,0,0,0-4.07-7.43,1.81,1.81,0,0,0,0-.23,2.87,2.87,0,0,0,0-.41h0a1.4,1.4,0,0,1-.16-.26,1.16,1.16,0,0,1-.28-.26l0,0a1.16,1.16,0,0,1-.26-.23A1.31,1.31,0,0,1,14.4,3s0,0-.06-.06a.86.86,0,0,1-.19-.19.25.25,0,0,1,0-.07A1,1,0,0,1,14,2.43h0a.34.34,0,0,1,0-.2,2,2,0,0,0-1-1.94,2,2,0,0,0-2.19.11.41.41,0,0,1-.47,0A2,2,0,0,0,8.09.28a2,2,0,0,0-1,1.94.42.42,0,0,1,0,.15,1,1,0,0,1-.24.7A1.34,1.34,0,0,1,6,3.71a1,1,0,0,1-.22.16A.8.8,0,0,1,5.71,4h0a1.93,1.93,0,0,0-.06.41,1.81,1.81,0,0,0,0,.23A8.87,8.87,0,0,0,1.65,12.1v2.42H0V31.45H21V14.52ZM13.87,7.36c0-.06,0-.12,0-.18a1.82,1.82,0,0,0,0-.52.36.36,0,0,1,.23-.39h0a2.22,2.22,0,0,0,.37-.21,7.26,7.26,0,0,1,3.24,6.05v2.42H16.16V12.1a5.6,5.6,0,0,0-2.33-4.57C13.85,7.47,13.85,7.41,13.87,7.36Zm-4,1.34a.91.91,0,0,1,.7-.31.88.88,0,0,1,.79.43V8.77a2,2,0,0,0,1.35-.06,4,4,0,0,1,1.88,3.39v2.42H6.48V12.1A4,4,0,0,1,8.35,8.71a2,2,0,0,0,.75.16,2.1,2.1,0,0,0,.61-.09h0A.54.54,0,0,1,9.83,8.7ZM7.52,4.09A2,2,0,0,0,8.71,2a.38.38,0,0,1,.19-.37.44.44,0,0,1,.2,0,.36.36,0,0,1,.23.07,2,2,0,0,0,2.37,0,.39.39,0,0,1,.43,0,.35.35,0,0,1,.19.37,2,2,0,0,0,1.19,2.05.36.36,0,0,1,.23.35.56.56,0,0,1,0,.15l0,0a.4.4,0,0,1-.18.16,2,2,0,0,0-1.19,2,.56.56,0,0,1,0,.13.46.46,0,0,1-.14.2l-.07,0a.36.36,0,0,1-.41,0,2,2,0,0,0-2.37,0,.37.37,0,0,1-.41,0l-.07,0A.36.36,0,0,1,8.72,7a.28.28,0,0,1,0-.13,2,2,0,0,0-1.19-2h0a.46.46,0,0,1-.18-.16l0,0a.56.56,0,0,1,0-.15A.36.36,0,0,1,7.52,4.09Zm-4.26,8a7.28,7.28,0,0,1,3.24-6,1.79,1.79,0,0,0,.38.22.39.39,0,0,1,.23.39,2.26,2.26,0,0,0,0,.52c0,.06,0,.12,0,.18s0,.11,0,.17A5.62,5.62,0,0,0,4.87,12.1v2.42H3.26ZM19.39,26.61H17v1.62h2.42v1.61H1.64V28.23H4.06V26.61H1.64V19.36H4.06V17.74H1.64V16.13H19.39v1.61H17v1.62h2.42Z" transform="translate(-0.03 0)"/><path class="cls-1" d="M10.52,17.77A3.22,3.22,0,0,0,8.1,23.12v5.14h4.84V23.12a3.22,3.22,0,0,0-2.42-5.35Zm1.07,4.42-.27.24v4.22H9.71V22.43l-.27-.24A1.61,1.61,0,1,1,12.13,21,1.58,1.58,0,0,1,11.59,22.19Z" transform="translate(-0.03 0)"/></svg>