<?xml version="1.0" encoding="utf-8"?>
<svg id="Layer_1" data-name="Layer 1" xmlns="http://www.w3.org/2000/svg" viewBox="0 0 38 38"><defs><style>.cls-1{fill:#fff;}</style></defs><title>6</title><path class="cls-1" d="M19,38.34a19,19,0,1,1,19-19A19,19,0,0,1,19,38.34Zm0-36a17,17,0,1,0,17,17A17,17,0,0,0,19,2.34Z" transform="translate(0 -0.34)"/><path class="cls-1" d="M35.86,20.34H1.73a1,1,0,0,1,0-2H35.86a1,1,0,0,1,0,2Z" transform="translate(0 -0.34)"/><path class="cls-1" d="M18.57,13A35.77,35.77,0,0,1,5.69,10.62l-2-.77A1,1,0,1,1,4.41,8l2,.77A33.66,33.66,0,0,0,32.2,8.14,1,1,0,0,1,33,10,35.75,35.75,0,0,1,18.57,13Z" transform="translate(0 -0.34)"/><path class="cls-1" d="M4.55,29.92a1,1,0,0,1-.29-2l2.08-.62a46.74,46.74,0,0,1,28.09.52,1,1,0,0,1-.64,1.9,44.66,44.66,0,0,0-26.88-.5l-2.08.62A.9.9,0,0,1,4.55,29.92Z" transform="translate(0 -0.34)"/><path class="cls-1" d="M19.21,37a1,1,0,0,1-1-1V1.85a1,1,0,0,1,2,0V36A1,1,0,0,1,19.21,37Z" transform="translate(0 -0.34)"/><path class="cls-1" d="M17,37.29a1,1,0,0,1-.68-.27C15.94,36.69,7.7,28.88,8,18.54c.15-6.12,3.26-11.78,9.24-16.83a1,1,0,0,1,1.41.12,1,1,0,0,1-.12,1.41C13,7.9,10.1,13.07,10,18.59c-.24,9.45,7.62,16.89,7.7,17A1,1,0,0,1,17.71,37,1,1,0,0,1,17,37.29Z" transform="translate(0 -0.34)"/><path class="cls-1" d="M21.83,37.29A1,1,0,0,1,21.1,37a1,1,0,0,1,0-1.41c.08-.08,8-7.55,7.7-17-.14-5.52-3-10.68-8.53-15.34A1,1,0,1,1,21.6,1.71c6,5.05,9.09,10.71,9.24,16.83.26,10.34-8,18.15-8.33,18.48A1,1,0,0,1,21.83,37.29Z" transform="translate(0 -0.34)"/></svg>