<?xml version="1.0" encoding="utf-8"?>
<svg id="Слой_1" data-name="Слой 1" xmlns="http://www.w3.org/2000/svg" viewBox="0 0 113.76 87.55"><defs><style>.cls-1,.cls-2{fill:#fff;}.cls-2{font-size:50.36px;font-family:AGFuturaBold;}</style></defs><title>4</title><path class="cls-1" d="M87.45,87.55h-68l-1.09-4.08a18.69,18.69,0,0,1-.07-8.22c.08-.38.14-.75.2-1.09.58-3.58,1.51-6.81,7.06-10.64a42.55,42.55,0,0,1,9.93-4.62c.88-.31,2.85-1,3.43-1.34l.24-.23A8.35,8.35,0,0,0,40,56.5a9.15,9.15,0,0,0,.34-1,8.91,8.91,0,0,0-1-2.9l-.3-.53-.17-.57a9.31,9.31,0,0,0-.84-1.93c-2.94-2.48-5.32-8.31-4.85-12a8.07,8.07,0,0,1,1.1-3.39c0-.7,0-1.73-.06-2.3,0-1-.08-2.29-.08-3.56,0-4.92,1.54-11.42,5.88-14.91.56-.45,1-.83,1.33-1.15,2.36-2.14,4.1-3.13,8.18-3.33l3.63-.18.32,0c.48,0,1.4-.08,3.23-.16l.7,0a9.3,9.3,0,0,1,7.47,3.4,3.68,3.68,0,0,0,1.06.91c6,3.23,7.32,11.37,6.73,15.88,0,1.09,0,2.16-.09,3.15,0,.58-.06,1.62-.06,2.3a7.94,7.94,0,0,1,1.11,3.39c.47,3.7-1.92,9.54-4.86,12A10.32,10.32,0,0,0,68,51.47l-.17.57-.3.53a8.72,8.72,0,0,0-1,2.9,7.4,7.4,0,0,0,.34,1,9,9,0,0,0,.86.83l.25.23a35.93,35.93,0,0,0,3.41,1.33,42.7,42.7,0,0,1,9.94,4.63c5.55,3.83,6.48,7.06,7.06,10.57.06.38.12.76.2,1.16a18.72,18.72,0,0,1-.06,8.22Zm-64.15-5H83.61l.1-.37a13.72,13.72,0,0,0,0-5.9c-.1-.48-.17-.93-.24-1.36-.45-2.7-.92-4.49-5-7.28a39,39,0,0,0-8.79-4c-3-1.08-4.24-1.58-5-2.23L64.37,61a6.92,6.92,0,0,1-2.67-4.29c-.75-2.57,1.43-6.56,1.45-6.6L63.2,50s.93-3.06,2.24-4.18l.09-.07c1.62-1.26,3.44-5.61,3.19-7.62a2.66,2.66,0,0,0-.53-1.56L67.71,36l-.09-.75a31.33,31.33,0,0,1,0-3.62c0-1,.08-2.06.08-3.15l0-.35c.49-3.39-.67-9.08-4.12-10.93a8.23,8.23,0,0,1-2.37-1.93A4.54,4.54,0,0,0,57,13.51l-3.18.16-.15,0-2.8.34v-.21l-1,.06c-2.84.14-3.52.63-5,2-.43.39-.92.84-1.57,1.36-2.78,2.23-4,7.13-4,11,0,1.17,0,2.31.08,3.37a28.9,28.9,0,0,1,0,3.62L39.2,36l-.49.58a2.67,2.67,0,0,0-.52,1.55c-.25,2,1.56,6.35,3.18,7.62l.09.07c1.3,1.1,2.21,4,2.24,4.17l0,.11s2.22,4,1.46,6.61A6.94,6.94,0,0,1,42.53,61l-.35.32c-.75.67-2,1.17-5,2.25a38.77,38.77,0,0,0-8.79,4c-4,2.79-4.52,4.58-4.95,7.26-.08.48-.16.92-.25,1.38a13.73,13.73,0,0,0,0,5.9Z" transform="translate(0.61)"/><path class="cls-1" d="M79.51,6.79a8.23,8.23,0,0,0,2.37,1.93A5.73,5.73,0,0,1,83.44,10c.72-.44,1.44-.86,2.19-1.23.58-.63,1.16-1.25,1.79-1.83a11,11,0,0,0-3.18-2.62,3.68,3.68,0,0,1-1.06-.91A9.3,9.3,0,0,0,75.71,0L75,0c-1.83.08-2.75.13-3.23.16l-.32,0L67.83.39C63.75.59,62,1.58,59.65,3.72c-.22.2-.48.44-.77.68a3,3,0,0,1,.32.07,8,8,0,0,1,3,1.78c.35.32.66.67,1,1,1.43-1.28,2.16-1.75,4.9-1.88l1-.06v.21l2.8-.34.15,0L75.25,5A4.54,4.54,0,0,1,79.51,6.79Z" transform="translate(0.61)"/><path class="cls-1" d="M106.85,66.75c-.08-.4-.14-.78-.2-1.16-.55-3.32-1.41-6.38-6.18-9.94a2.48,2.48,0,0,1-.48.54,14.47,14.47,0,0,0-1.13,1.09c-.1.1-.5.57-.57.64a18.65,18.65,0,0,0-1.05,1.57c3.59,2.59,4.05,4.34,4.48,6.93.07.43.14.88.24,1.36a13.72,13.72,0,0,1,0,5.9l-.1.37H92.61a3.46,3.46,0,0,1,.53,1.79v3.21H105.7L106.79,75A18.72,18.72,0,0,0,106.85,66.75Z" transform="translate(0.61)"/><path class="cls-1" d="M48.29,4.8c-.26-.17-.52-.34-.8-.49a3.68,3.68,0,0,1-1.06-.91A9.3,9.3,0,0,0,39,0l-.7,0C36.43.1,35.51.15,35,.18l-.32,0L31.08.39C27,.59,25.26,1.58,22.9,3.72c-.35.32-.77.7-1.33,1.15-4.34,3.49-5.88,10-5.88,14.91,0,1.27,0,2.54.08,3.56,0,.57.06,1.6.06,2.3A8.07,8.07,0,0,0,14.73,29c-.47,3.7,1.91,9.53,4.85,12A9.31,9.31,0,0,1,20.42,43l.17.57.3.53a8.91,8.91,0,0,1,1,2.9,9.15,9.15,0,0,1-.34,1,8.35,8.35,0,0,1-.87.83l-.24.23c-.58.32-2.55,1-3.43,1.34A42.55,42.55,0,0,0,7.06,55C1.51,58.85.58,62.08,0,65.66c-.06.34-.12.71-.2,1.09A18.69,18.69,0,0,0-.13,75L1,79.05h12.2c0-.23.05-.46.07-.69.07-.64.15-1.27.25-1.91a10.79,10.79,0,0,1,.66-2.4H4.8l-.1-.37a13.73,13.73,0,0,1,0-5.9c.09-.46.17-.9.25-1.38.43-2.68.91-4.47,5-7.26a38.77,38.77,0,0,1,8.79-4c3-1.08,4.24-1.58,5-2.25l.35-.32a6.94,6.94,0,0,0,2.68-4.29c.76-2.6-1.44-6.57-1.46-6.61l-.05-.11c0-.12-.94-3.07-2.24-4.17l-.09-.07c-1.62-1.27-3.43-5.61-3.18-7.62a2.67,2.67,0,0,1,.52-1.55l.49-.58.08-.76a28.9,28.9,0,0,0,0-3.62c0-1.06-.08-2.2-.08-3.37,0-3.88,1.24-8.78,4-11,.65-.52,1.14-1,1.57-1.36,1.53-1.39,2.21-1.88,5-2l1-.06v.21l2.8-.34.15,0L38.5,5a4.54,4.54,0,0,1,4.26,1.78l.26.28c1.77-.54,3.48-1.23,5.26-1.7A3.62,3.62,0,0,1,48.29,4.8Z" transform="translate(0.61)"/><text class="cls-2" transform="translate(78.11 50.55)">%</text></svg>